<mxfile host="app.diagrams.net" modified="2024-06-05T01:59:55.345Z" agent="Mozilla/5.0 (Macintosh; Intel Mac OS X 10_15_7) AppleWebKit/537.36 (KHTML, like Gecko) Chrome/125.0.0.0 Safari/537.36" version="24.4.13" etag="Nd-p9lqWG0XRPDLThFab" type="github">
  <diagram name="Page-1" id="Qiv-yUQBK-QxCy71kxAW">
    <mxGraphModel>
      <root>
        <mxCell id="0" />
        <mxCell id="1" parent="0" />
      </root>
    </mxGraphModel>
  </diagram>
</mxfile>
